HIERARCHY
ROOT Hips
{
	OFFSET 0.000000 0.000000 0.000000
	CHANNELS 6 Xposition Yposition Zposition Zrotation Yrotation Xrotation 
	JOINT LowerBack
	{
		OFFSET 0.000000 0.000000 0.000000
		CHANNELS 3 Zrotation Yrotation Xrotation
		JOINT Spine
		{
			OFFSET 0.028270 2.035590 -0.193380
			CHANNELS 3 Zrotation Yrotation Xrotation
			JOINT Spine1
			{
				OFFSET 0.056720 2.048850 -0.042750
				CHANNELS 3 Zrotation Yrotation Xrotation
				JOINT Neck
				{
					OFFSET 0.000000 0.000000 0.000000
					CHANNELS 3 Zrotation Yrotation Xrotation
					JOINT Neck1
					{
						OFFSET -0.054170 1.746240 0.172020
						CHANNELS 3 Zrotation Yrotation Xrotation
						JOINT Head
						{
							OFFSET 0.104070 1.761360 -0.123970
							CHANNELS 3 Zrotation Yrotation Xrotation
							End Site
							{
								OFFSET 0.000000 0.000000 0.000000
							}
						}
					}
				}
				JOINT LeftShoulder
				{
					OFFSET 0.000000 0.000000 0.000000
					CHANNELS 3 Zrotation Yrotation Xrotation
					JOINT LeftArm
					{
						OFFSET 3.362410 1.200890 -0.311210
						CHANNELS 3 Zrotation Yrotation Xrotation
						JOINT LeftForeArm
						{
							OFFSET 4.983000 -0.000000 -0.000000
							CHANNELS 3 Zrotation Yrotation Xrotation
							JOINT LeftHand
							{
								OFFSET 3.483560 -0.000000 -0.000000
								CHANNELS 3 Zrotation Yrotation Xrotation
								JOINT LeftFingerBase
								{
									OFFSET 0.000000 0.000000 0.000000
									CHANNELS 3 Zrotation Yrotation Xrotation
									JOINT LeftHandIndex1
									{
										OFFSET 0.715260 -0.000000 -0.000000
										CHANNELS 3 Zrotation Yrotation Xrotation
										End Site
										{
											OFFSET 0.000000 0.000000 0.000000
										}
									}
								}
								JOINT LThumb
								{
									OFFSET 0.000000 0.000000 0.000000
									CHANNELS 3 Zrotation Yrotation Xrotation
									End Site
									{
										OFFSET 0.000000 0.000000 0.000000
									}
								}
							}
						}
					}
				}
				JOINT RightShoulder
				{
					OFFSET 0.000000 0.000000 0.000000
					CHANNELS 3 Zrotation Yrotation Xrotation
					JOINT RightArm
					{
						OFFSET -3.136600 1.374050 -0.404650
						CHANNELS 3 Zrotation Yrotation Xrotation
						JOINT RightForeArm
						{
							OFFSET -5.241900 -0.000000 -0.000000
							CHANNELS 3 Zrotation Yrotation Xrotation
							JOINT RightHand
							{
								OFFSET -3.444170 -0.000000 -0.000000
								CHANNELS 3 Zrotation Yrotation Xrotation
								JOINT RightFingerBase
								{
									OFFSET 0.000000 0.000000 0.000000
									CHANNELS 3 Zrotation Yrotation Xrotation
									JOINT RightHandIndex1
									{
										OFFSET -0.622530 -0.000000 -0.000000
										CHANNELS 3 Zrotation Yrotation Xrotation
										End Site
										{
											OFFSET 0.000000 0.000000 0.000000
										}
									}
								}
								JOINT RThumb
								{
									OFFSET 0.000000 0.000000 0.000000
									CHANNELS 3 Zrotation Yrotation Xrotation
									End Site
									{
										OFFSET 0.000000 0.000000 0.000000
									}
								}
							}
						}
					}
				}
			}
		}
	}
}
}
MOTION
Frames: 17
Frame Time: 0.008333
4.413214 17.405178 0.648494 6.214546 -55.839167 9.122076 -4.180047 2.114518 0.881708 -0.396320 2.464681 -3.140307 -0.281575 2.462354 -2.993133 -8.140250 0.135691 -2.762131 -0.352374 -0.108515 1.344261 0.000000 0.000000 0.000000 0.771270 1.225427 -2.440940 -76.887490 -4.826120 27.838020 179.894808 -70.178654 179.931772 7.968702 -0.955417 -0.103533 -0.127025 0.535720 -0.000000 0.000000 0.000000 0.000000 0.000000 0.000000 0.000000 -18.311234 6.647138 2.367250 -3.801761 41.854593 -70.090485 -3.083390 12.746809 -0.222302 -30.039650 8.174818 -2.421545 0.682905 -0.645386 -0.000000 0.000000 0.000000 0.000000 0.000000 0.000000 0.000000 
4.418301 17.406849 0.656828 6.111349 -55.674494 9.453405 -4.128421 2.058929 0.838248 -0.398351 2.405467 -3.164307 -0.359379 2.405070 -3.032165 -7.929230 0.223916 -2.680697 -0.399916 -0.113041 1.366514 0.000000 0.000000 0.000000 0.602699 1.333880 -2.381784 -77.261242 -4.369876 27.308097 179.918203 -70.051297 179.931288 7.964116 -0.995796 -0.106647 -0.128177 0.541550 0.000000 0.000000 0.000000 0.000000 0.000000 0.000000 0.000000 -18.082915 6.768543 2.246593 -2.306582 41.489929 -66.461250 -2.887448 15.455874 -0.205123 -26.414466 4.536358 -1.226206 0.614021 -0.571292 -0.000000 0.000000 0.000000 0.000000 0.000000 0.000000 0.000000 
4.423971 17.408185 0.665455 6.010937 -55.553215 9.776739 -4.096922 1.993776 0.798054 -0.401529 2.338473 -3.187492 -0.426829 2.339330 -3.067959 -7.682491 0.365577 -2.567722 -0.451140 -0.118245 1.396528 0.000000 0.000000 0.000000 0.442356 1.476911 -2.313731 -77.659980 -3.921016 26.775682 179.939893 -69.973198 179.930636 7.983665 -1.029142 -0.109659 -0.129597 0.546915 -0.000000 0.000000 0.000000 0.000000 0.000000 0.000000 0.000000 -17.789886 6.902010 2.111474 -0.919148 41.140920 -63.277464 -2.700093 18.219686 -0.184130 -22.816064 2.052610 -0.531621 0.527331 -0.521990 -0.000000 0.000000 0.000000 0.000000 0.000000 0.000000 0.000000 
4.430592 17.409103 0.673947 5.917250 -55.476140 10.082101 -4.085775 1.924944 0.773589 -0.405921 2.269342 -3.207615 -0.483200 2.270918 -3.103221 -7.411045 0.521568 -2.427953 -0.503618 -0.123877 1.432996 0.000000 0.000000 0.000000 0.290451 1.653338 -2.236954 -78.081910 -3.501650 26.253804 179.960126 -69.952400 179.929779 8.032093 -1.053571 -0.112369 -0.131540 0.551696 -0.000000 0.000000 0.000000 0.000000 0.000000 0.000000 0.000000 -17.450281 7.013407 1.944098 0.410372 40.843041 -60.503846 -2.541579 21.049505 -0.162970 -19.566660 0.721315 -0.215794 0.436820 -0.500422 -0.000000 0.000000 0.000000 0.000000 0.000000 0.000000 0.000000 
4.438107 17.409466 0.682146 5.823846 -55.434198 10.378421 -4.097658 1.856348 0.762261 -0.415353 2.201961 -3.225102 -0.541319 2.203978 -3.137303 -7.093186 0.646357 -2.267195 -0.566680 -0.130438 1.474302 0.000000 0.000000 0.000000 0.178267 1.844874 -2.156186 -78.536666 -3.114732 25.750079 179.976224 -69.994171 179.928643 8.116053 -1.073224 -0.115181 -0.133950 0.555955 0.000000 0.000000 0.000000 0.000000 0.000000 0.000000 0.000000 -16.992505 7.060171 1.744810 1.616046 40.619153 -57.982324 -2.413635 23.915068 -0.145435 -16.981004 0.398929 -0.138040 0.355909 -0.503422 -0.000000 0.000000 0.000000 0.000000 0.000000 0.000000 0.000000 
4.446871 17.409309 0.689579 5.742474 -55.429111 10.646708 -4.129299 1.794210 0.782392 -0.426761 2.142211 -3.237509 -0.590620 2.144430 -3.177111 -6.763780 0.742788 -2.088390 -0.630078 -0.137203 1.519753 0.000000 0.000000 0.000000 0.085148 2.049916 -2.068653 -79.013310 -2.778481 25.273300 179.989899 -70.097986 179.927234 8.234334 -1.085733 -0.117996 -0.137040 0.559661 0.000000 0.000000 0.000000 0.000000 0.000000 0.000000 0.000000 -16.501888 7.057035 1.500183 2.860864 40.418642 -55.654397 -2.318061 26.931634 -0.133093 -15.066726 0.897444 -0.192268 0.287665 -0.526319 -0.000000 0.000000 0.000000 0.000000 0.000000 0.000000 0.000000 
4.456771 17.408619 0.696252 5.664096 -55.451888 10.898298 -4.180525 1.739613 0.828026 -0.442700 2.091081 -3.245885 -0.641127 2.093442 -3.220815 -6.404790 0.790521 -1.897511 -0.702566 -0.144630 1.567715 0.000000 0.000000 0.000000 0.034809 2.250901 -1.978836 -79.516128 -2.486716 24.827889 179.998420 -70.257187 179.925514 8.388875 -1.095563 -0.121214 -0.140566 0.562945 0.000000 0.000000 0.000000 0.000000 0.000000 0.000000 0.000000 -15.915319 6.985136 1.222898 4.067611 40.234814 -53.422783 -2.243114 30.076113 -0.127893 -13.965606 1.994343 -0.318788 0.237450 -0.561783 -0.000000 0.000000 0.000000 0.000000 0.000000 0.000000 0.000000 
4.467823 17.407519 0.702083 5.590637 -55.497406 11.131515 -4.247449 1.693155 0.901355 -0.461777 2.048983 -3.249969 -0.690074 2.051449 -3.269930 -6.028550 0.800230 -1.698362 -0.782028 -0.152506 1.617206 0.000000 0.000000 0.000000 0.021672 2.440249 -1.887215 -80.036990 -2.238537 24.416276 -179.998479 -70.459411 179.923490 8.576986 -1.104711 -0.124838 -0.144419 0.565916 0.000000 0.000000 0.000000 0.000000 0.000000 0.000000 0.000000 -15.256755 6.859927 0.920685 5.275780 40.030217 -51.273160 -2.176408 33.388721 -0.129661 -13.596209 3.484219 -0.495104 0.203524 -0.603259 -0.000000 0.000000 0.000000 0.000000 0.000000 0.000000 0.000000 
4.480076 17.406102 0.707013 5.525064 -55.561956 11.343619 -4.323428 1.654522 1.004991 -0.481708 2.015256 -3.249160 -0.733338 2.017829 -3.325160 -5.652075 0.791289 -1.494689 -0.864518 -0.160510 1.667257 0.000000 0.000000 0.000000 0.033271 2.615538 -1.793900 -80.563295 -2.034455 24.041969 179.999782 -70.690250 179.921198 8.793732 -1.113618 -0.128869 -0.148531 0.568628 0.000000 0.000000 0.000000 0.000000 0.000000 0.000000 0.000000 -14.565257 6.704931 0.603399 6.528780 39.772914 -49.226920 -2.106249 36.881499 -0.137418 -13.837585 5.178394 -0.717017 0.182819 -0.645042 -0.000000 0.000000 0.000000 0.000000 0.000000 0.000000 0.000000 
4.493270 17.404542 0.711246 5.460600 -55.636726 11.545695 -4.403382 1.621261 1.131126 -0.502876 1.987166 -3.244150 -0.777064 1.989969 -3.382663 -5.269313 0.764856 -1.292350 -0.953497 -0.168769 1.716302 0.000000 0.000000 0.000000 0.075833 2.768461 -1.701996 -81.089086 -1.864948 23.705111 179.992758 -70.932072 179.918691 9.032071 -1.126239 -0.133605 -0.152644 0.571230 0.000000 0.000000 0.000000 0.000000 0.000000 0.000000 0.000000 -13.822295 6.523861 0.289040 7.790528 39.459560 -47.280086 -2.019748 40.527118 -0.149596 -14.565843 6.857625 -0.976831 0.172707 -0.681517 -0.000000 0.000000 0.000000 0.000000 0.000000 0.000000 0.000000 
4.507293 17.402972 0.714917 5.399134 -55.719486 11.739738 -4.480944 1.592324 1.277107 -0.524086 1.963281 -3.234847 -0.821740 1.966534 -3.440380 -4.890034 0.733221 -1.095746 -1.046148 -0.177040 1.763210 0.000000 0.000000 0.000000 0.140843 2.898074 -1.612653 -81.601268 -1.726838 23.408019 179.981763 -71.169245 179.916050 9.283077 -1.143814 -0.139046 -0.156684 0.573780 0.000000 0.000000 0.000000 0.000000 0.000000 0.000000 0.000000 -13.057981 6.334378 -0.010405 9.087512 39.083012 -45.458897 -1.910609 44.295015 -0.163925 -15.589156 8.351257 -1.257147 0.169351 -0.709728 -0.000000 0.000000 0.000000 0.000000 0.000000 0.000000 0.000000 
4.521951 17.401542 0.718280 5.339037 -55.806417 11.932296 -4.550402 1.566091 1.436544 -0.544850 1.941639 -3.221728 -0.870576 1.945643 -3.495308 -4.517753 0.701439 -0.908518 -1.141122 -0.185197 1.807090 0.000000 0.000000 0.000000 0.225171 3.002758 -1.527585 -82.089532 -1.615461 23.153175 179.968086 -71.385831 179.913370 9.536147 -1.168053 -0.145195 -0.160552 0.576368 0.000000 0.000000 0.000000 0.000000 0.000000 0.000000 0.000000 -12.290307 6.146537 -0.284303 10.435169 38.648990 -43.773804 -1.776516 48.135919 -0.178154 -16.712403 9.523819 -1.526169 0.169587 -0.728555 -0.000000 0.000000 0.000000 0.000000 0.000000 0.000000 0.000000 
4.536908 17.400341 0.721571 5.280795 -55.894536 12.129242 -4.606889 1.540933 1.603197 -0.564847 1.920284 -3.205304 -0.926858 1.925398 -3.544382 -4.154039 0.672528 -0.732918 -1.236962 -0.193138 1.847431 0.000000 0.000000 0.000000 0.326190 3.082865 -1.447877 -82.544454 -1.526669 22.942936 179.953393 -71.571908 179.910760 9.779760 -1.199324 -0.151845 -0.164173 0.579027 0.000000 0.000000 0.000000 0.000000 0.000000 0.000000 0.000000 -11.535496 5.967771 -0.525431 11.851436 38.167448 -42.224799 -1.619292 51.994885 -0.190394 -17.753760 10.273613 -1.742799 0.171042 -0.738229 -0.000000 0.000000 0.000000 0.000000 0.000000 0.000000 0.000000 
4.552011 17.399452 0.725056 5.221836 -55.982292 12.336145 -4.646964 1.515289 1.770793 -0.583872 1.897416 -3.186253 -0.993270 1.904006 -3.585175 -3.799497 0.647450 -0.569341 -1.332174 -0.200789 1.884243 0.000000 0.000000 0.000000 0.442382 3.140193 -1.374167 -82.958437 -1.456795 22.780309 179.939210 -71.719736 179.908337 10.002503 -1.238172 -0.158998 -0.167459 0.581809 0.000000 0.000000 0.000000 0.000000 0.000000 0.000000 0.000000 -10.808162 5.802066 -0.730774 13.355493 37.652459 -40.801807 -1.443573 55.817477 -0.199345 -18.562718 10.562631 -1.871337 0.171929 -0.740078 -0.000000 0.000000 0.000000 0.000000 0.000000 0.000000 0.000000 
4.567017 17.398894 0.728918 5.162018 -56.068262 12.557101 -4.668713 1.487686 1.933294 -0.601784 1.871440 -3.165364 -1.071283 1.879835 -3.615716 -3.452514 0.628283 -0.416100 -1.425782 -0.208135 1.918083 0.000000 0.000000 0.000000 0.574163 3.176868 -1.306732 -83.327329 -1.402995 22.666822 179.926750 -71.825058 179.906195 10.193695 -1.283873 -0.166553 -0.170292 0.584738 0.000000 0.000000 0.000000 0.000000 0.000000 0.000000 0.000000 -10.116012 5.652534 -0.899564 14.958985 37.114221 -39.484565 -1.254934 59.558760 -0.204295 -19.038406 10.400045 -1.890985 0.171028 -0.735599 -0.000000 0.000000 0.000000 0.000000 0.000000 0.000000 0.000000 
4.581673 17.398692 0.733358 5.103064 -56.155113 12.794001 -4.671944 1.456694 2.086558 -0.618580 1.840889 -3.142778 -1.161490 1.851391 -3.633015 -3.113326 0.606998 -0.273013 -1.516676 -0.215127 1.949057 0.000000 0.000000 0.000000 0.719320 3.201193 -1.245375 -83.646278 -1.366482 22.605971 179.917415 -71.889447 179.904427 10.344787 -1.335058 -0.174008 -0.172626 0.587783 0.000000 0.000000 0.000000 0.000000 0.000000 0.000000 0.000000 -9.466989 5.510162 -1.035976 16.674260 36.579219 -38.248803 -1.060452 63.176457 -0.205061 -19.134292 9.857346 -1.805441 0.167403 -0.726488 -0.000000 0.000000 0.000000 0.000000 0.000000 0.000000 0.000000 
4.595957 17.398804 0.738493 5.041648 -56.243817 13.050352 -4.657964 1.421874 2.224894 -0.634522 1.805433 -3.119701 -1.263811 1.818265 -3.636852 -2.777227 0.589547 -0.135639 -1.605022 -0.221846 1.978442 0.000000 0.000000 0.000000 0.881212 3.213489 -1.189973 -83.916212 -1.343875 22.596781 179.911513 -71.915970 179.903101 10.448958 -1.389948 -0.181165 -0.174284 0.590920 0.000000 0.000000 0.000000 0.000000 0.000000 0.000000 0.000000 -8.855429 5.379453 -1.141634 18.491816 36.042363 -37.061963 -0.865069 66.654470 -0.201784 -18.857720 9.021958 -1.635105 0.160678 -0.713917 -0.000000 0.000000 0.000000 0.000000 0.000000 0.000000 0.000000 
